<?xml version="1.0" encoding="utf-8"?>
<!-- Generator: Adobe Illustrator 15.0.0, SVG Export Plug-In . SVG Version: 6.00 Build 0)  -->
<!DOCTYPE svg PUBLIC "-//W3C//DTD SVG 1.1//EN" "http://www.w3.org/Graphics/SVG/1.1/DTD/svg11.dtd">
<svg version="1.1" id="Шар_1" xmlns="http://www.w3.org/2000/svg" xmlns:xlink="http://www.w3.org/1999/xlink" x="0px" y="0px"
	 width="136px" height="38px" viewBox="0 0 52.266 15.692" enable-background="new 0 0 52.266 15.692" xml:space="preserve">
<path fill-rule="evenodd" clip-rule="evenodd" fill="#1d1d1d" d="M14.458,0.314c-0.216-0.114-0.444-0.215-0.681-0.309
	c-0.613-0.056-0.786,0.328-0.99,0.681c-0.493-0.106-0.963-0.008-1.176,0.248c-0.187,0.224-0.17,0.562-0.33,0.826
	c-0.114-0.078-0.329-0.135-0.475-0.062c-0.104,0.106-0.041,0.243-0.062,0.372c-0.348-0.077-0.579,0.115-0.64,0.392
	C9.714,2.394,9.58,2.583,9.362,2.688c-0.32-0.23-0.788-0.028-0.97,0.186c-0.198-0.281-0.733-0.231-0.949,0
	C7.26,2.71,7.106,2.594,6.844,2.646C6.673,2.681,6.587,2.877,6.452,2.894C6.36,2.905,6.279,2.824,6.184,2.812
	c-0.28-0.037-0.489,0.096-0.722,0.165C5.113,2.728,4.349,2.724,4.141,3.1C3.685,2.787,3.169,3.064,2.882,3.307
	c-0.66-0.072-1.044,0.302-1.341,0.66C0.95,3.94,0.782,4.335,0.654,4.771C0.158,4.833,0.113,5.57,0.324,5.989
	c-0.178,0.273-0.38,0.497-0.31,0.867c0.033,0.17,0.223,0.346,0.227,0.516c0.007,0.271-0.297,0.505-0.227,0.867
	C0.018,8.255,0.065,8.269,0.076,8.3c0.014,0.042-0.012,0.099,0,0.124c0.068,0.147,0.221,0.21,0.227,0.351
	C0.308,8.879,0.211,8.977,0.2,9.084C0.16,9.454,0.389,9.71,0.654,9.889c0.069,0.138,0.145,0.318,0.165,0.536
	c0.06,0.64-0.238,0.911-0.165,1.465c0.046,0.347,0.192,0.741,0.227,1.155c0.031,0.374,0.091,0.777,0.124,1.052
	c0.037,0.316-0.112,1.078,0.124,1.135c0.078,0.019,0.141-0.057,0.207-0.062c0.231-0.02,0.521,0.144,0.722,0.021
	c0.063-0.095,0.11-0.206,0.145-0.33c-0.224-0.488-0.285-1.174-0.351-1.857c-0.021-0.214-0.083-0.39-0.062-0.578
	c0.039-0.34,0.205-0.553,0.351-0.784c0.11-0.173,0.169-0.402,0.351-0.454c0.065,0.349-0.128,0.541-0.103,0.846
	c0.014,0.172,0.097,0.436,0.145,0.64c0.031,0.134,0.112,0.281,0.124,0.392c0.016,0.153,0.008,0.32,0.042,0.475
	c0.084,0.385,0.292,0.765,0.289,1.052c-0.001,0.121-0.123,0.273-0.103,0.392c0.062,0.367,1.229,0.342,1.238-0.104
	c0.002-0.133-0.146-0.326-0.227-0.495c-0.077-0.158-0.181-0.336-0.227-0.495c-0.159-0.548-0.155-1.337-0.165-1.94
	c0.282-0.233,0.483-0.548,0.722-0.825c0.153,0.115,0.301,0.236,0.433,0.372c0.674,0.239,1.449,0.493,2.332,0.392
	c0.649-0.074,1.254-0.317,1.795-0.454c0.029,0.226,0.202,0.307,0.351,0.413c-0.016,0.197,0.238,0.283,0.289,0.434
	c0.054,0.157-0.029,0.486,0,0.763c0.025,0.242,0.094,0.516,0.062,0.826c-0.019,0.185-0.027,0.357-0.042,0.495
	c-0.045,0.445-0.302,0.987-0.186,1.32c0.314-0.022,0.73,0.057,0.949-0.062c0.1-0.227-0.076-0.409-0.103-0.537
	c-0.049-0.23,0.042-0.598,0.062-0.743c0.069-0.492,0.015-0.905,0.186-1.197c0.331-0.178,0.403-0.615,0.598-0.929
	c0.399,0.007,0.493-0.292,0.764-0.413c0.075,0.48-0.311,0.841,0.021,1.155c-0.263,0.14-0.056,0.423,0.062,0.578
	c-0.048,0.145-0.007,0.378-0.021,0.557c0.298,0.322,0.044,1.092,0.165,1.527c0.242,0.13,0.637,0.03,0.928,0.021
	c0.13-0.137,0.068-0.396-0.021-0.537c0-0.048,0-0.096,0-0.145c-0.465-0.827-0.25-1.949,0-2.724c0.092-0.286,0.155-0.682,0.289-0.908
	c0.118-0.199,0.367-0.399,0.557-0.599c0.2-0.209,0.366-0.458,0.516-0.578c0.255-0.203,0.587-0.328,0.578-0.743
	c-0.084-0.102-0.1-0.272-0.124-0.434c0.058-0.086,0.258-0.087,0.289-0.227c0.017-0.078-0.066-0.292-0.104-0.433
	c-0.036-0.138-0.113-0.286-0.124-0.413c-0.033-0.409,0.117-0.731,0.186-0.97c0.321-0.016,0.621-0.076,0.64-0.351
	c0.009-0.138-0.112-0.253-0.062-0.413c0.258,0.004,0.368-0.141,0.475-0.289c-0.027-0.062-0.027-0.165,0-0.227
	c-0.095-0.114-0.129-0.278-0.248-0.372c-0.071-0.056-0.201-0.062-0.227-0.145c-0.033-0.108,0.091-0.198,0.104-0.33
	c0.01-0.104-0.031-0.122-0.021-0.227c0.23,0.085,0.807,0.276,0.887-0.083c0.022-0.105-0.146-0.019-0.124-0.124
	c0.059-0.076,0.28,0.023,0.392-0.042c0.123-0.081,0.077-0.243,0.124-0.372c0.057-0.156,0.219-0.256,0.144-0.536
	c-0.104-0.124-0.209-0.245-0.33-0.351c-0.073-0.249-0.115-0.438-0.248-0.66c-0.094-0.159-0.38-0.37-0.372-0.557
	c0.005-0.107,0.161-0.193,0.248-0.31c0.152-0.205,0.209-0.386,0.186-0.743c-0.062-0.042-0.088-0.118-0.145-0.165
	c-0.343-0.104-0.459,0.128-0.722,0.165C15.6,0.22,14.935,0.037,14.458,0.314z"/>
<path fill-rule="evenodd" clip-rule="evenodd" fill="#1d1d1d" d="M15.614,0.81c0.263-0.037,0.379-0.269,0.722-0.165
	c0.056,0.047,0.083,0.123,0.145,0.165c0.023,0.357-0.034,0.538-0.186,0.743c-0.086,0.117-0.242,0.202-0.248,0.31
	c-0.009,0.188,0.277,0.398,0.372,0.557c0.132,0.223,0.175,0.412,0.248,0.66c0.121,0.106,0.227,0.228,0.33,0.351
	c0.075,0.28-0.087,0.38-0.144,0.536c-0.047,0.128-0.001,0.291-0.124,0.372c-0.112,0.065-0.333-0.034-0.392,0.042
	c-0.022,0.105,0.146,0.018,0.124,0.124c-0.08,0.359-0.657,0.168-0.887,0.083c-0.01,0.105,0.03,0.124,0.021,0.227
	c-0.013,0.132-0.137,0.222-0.104,0.33c0.026,0.083,0.156,0.088,0.227,0.145c0.119,0.094,0.152,0.257,0.248,0.372
	c-0.027,0.062-0.027,0.165,0,0.227c-0.106,0.148-0.216,0.293-0.475,0.289c-0.05,0.159,0.071,0.274,0.062,0.413
	c-0.019,0.275-0.318,0.335-0.64,0.351c-0.069,0.238-0.218,0.561-0.186,0.97c0.01,0.127,0.087,0.274,0.124,0.413
	c0.037,0.141,0.121,0.355,0.104,0.433c-0.031,0.14-0.231,0.141-0.289,0.227c0.024,0.162,0.039,0.332,0.124,0.434
	c0.009,0.415-0.323,0.54-0.578,0.743c-0.149,0.12-0.316,0.368-0.516,0.578c-0.19,0.2-0.439,0.399-0.557,0.599
	c-0.134,0.226-0.197,0.622-0.289,0.908c-0.25,0.775-0.465,1.896,0,2.724c0,0.048,0,0.097,0,0.145
	c0.089,0.141,0.15,0.399,0.021,0.537c-0.291,0.01-0.686,0.109-0.928-0.021c-0.121-0.435,0.133-1.205-0.165-1.527
	c0.014-0.179-0.027-0.412,0.021-0.557c-0.118-0.155-0.325-0.438-0.062-0.578c-0.332-0.314,0.055-0.675-0.021-1.155
	c-0.271,0.121-0.364,0.419-0.764,0.413c-0.195,0.313-0.268,0.75-0.598,0.929c-0.17,0.292-0.117,0.705-0.186,1.197
	c-0.021,0.145-0.111,0.512-0.062,0.743c0.027,0.128,0.203,0.31,0.103,0.537c-0.219,0.118-0.635,0.039-0.949,0.062
	c-0.117-0.333,0.141-0.875,0.186-1.32c0.014-0.138,0.022-0.31,0.042-0.495c0.032-0.31-0.037-0.584-0.062-0.826
	c-0.029-0.277,0.054-0.606,0-0.763c-0.051-0.15-0.304-0.237-0.289-0.434c-0.149-0.106-0.322-0.187-0.351-0.413
	c-0.541,0.137-1.146,0.38-1.795,0.454c-0.883,0.101-1.658-0.153-2.332-0.392c-0.132-0.136-0.28-0.256-0.433-0.372
	c-0.239,0.277-0.44,0.592-0.722,0.825c0.01,0.603,0.006,1.392,0.165,1.94c0.046,0.159,0.15,0.337,0.227,0.495
	c0.082,0.169,0.229,0.362,0.227,0.495c-0.009,0.445-1.177,0.471-1.238,0.104c-0.02-0.119,0.102-0.271,0.103-0.392
	c0.003-0.288-0.205-0.667-0.289-1.052c-0.034-0.154-0.025-0.321-0.042-0.475c-0.012-0.111-0.092-0.258-0.124-0.392
	c-0.048-0.204-0.13-0.468-0.145-0.64c-0.025-0.306,0.168-0.498,0.103-0.846c-0.182,0.052-0.24,0.281-0.351,0.454
	c-0.146,0.23-0.312,0.443-0.351,0.784c-0.021,0.188,0.042,0.364,0.062,0.578c0.066,0.683,0.127,1.369,0.351,1.857
	c-0.035,0.124-0.081,0.235-0.145,0.33c-0.201,0.124-0.491-0.041-0.722-0.021c-0.066,0.005-0.129,0.081-0.207,0.062
	c-0.235-0.057-0.086-0.819-0.124-1.135c-0.033-0.275-0.093-0.678-0.124-1.052c-0.035-0.414-0.181-0.809-0.227-1.155
	c-0.073-0.554,0.225-0.826,0.165-1.465c-0.021-0.218-0.096-0.398-0.165-0.536C0.389,9.71,0.16,9.454,0.2,9.084
	c0.012-0.107,0.108-0.206,0.104-0.31C0.297,8.634,0.145,8.571,0.076,8.424c-0.012-0.025,0.014-0.082,0-0.124
	C0.065,8.269,0.018,8.255,0.014,8.238c-0.07-0.361,0.234-0.595,0.227-0.867C0.237,7.202,0.047,7.026,0.014,6.856
	c-0.07-0.37,0.131-0.594,0.31-0.867c-0.21-0.419-0.166-1.156,0.33-1.218C0.782,4.335,0.95,3.94,1.541,3.967
	c0.297-0.358,0.681-0.732,1.341-0.66C3.169,3.064,3.685,2.787,4.141,3.1c0.208-0.376,0.972-0.372,1.321-0.124
	c0.232-0.069,0.441-0.202,0.722-0.165C6.279,2.824,6.36,2.905,6.452,2.894c0.135-0.017,0.221-0.213,0.392-0.248
	C7.106,2.594,7.26,2.71,7.442,2.874c0.216-0.231,0.751-0.281,0.949,0c0.183-0.214,0.65-0.417,0.97-0.186
	C9.58,2.583,9.714,2.394,10.104,2.46c0.061-0.276,0.292-0.468,0.64-0.392c0.021-0.129-0.042-0.265,0.062-0.372
	c0.146-0.073,0.36-0.016,0.475,0.062c0.16-0.264,0.143-0.602,0.33-0.826c0.213-0.255,0.683-0.354,1.176-0.248
	c0.205-0.353,0.377-0.736,0.99-0.681c0.236,0.094,0.465,0.195,0.681,0.309C14.935,0.037,15.6,0.22,15.614,0.81z"/>
<g>
	<path fill="#1d1d1d" d="M24.765,7.306v0.54h-0.369v-0.54c-1.347-0.048-2.338-0.677-2.338-1.853s0.991-1.805,2.338-1.853v-0.54
		h0.369v0.54c1.347,0.048,2.338,0.677,2.338,1.853S26.112,7.258,24.765,7.306z M24.396,6.971V3.936
		c-1.176,0.048-1.969,0.554-1.969,1.518S23.22,6.923,24.396,6.971z M26.734,5.454c0-0.964-0.793-1.47-1.969-1.518v3.035
		C25.941,6.923,26.734,6.417,26.734,5.454z"/>
	<path fill="#1d1d1d" d="M31.351,4.428v3.418h-0.349V7.074c-0.287,0.513-0.813,0.848-1.47,0.848c-0.971,0-1.771-0.772-1.771-1.784
		s0.8-1.784,1.771-1.784c0.656,0,1.183,0.335,1.47,0.848V4.428H31.351z M31.002,6.137c0-0.813-0.629-1.456-1.442-1.456
		S28.11,5.324,28.11,6.137s0.636,1.456,1.449,1.456S31.002,6.951,31.002,6.137z"/>
	<path fill="#1d1d1d" d="M32.31,6.171c0-1.066,0.191-1.641,1.278-2.174c0.745-0.355,1.347-0.444,1.442-1.025l0.273,0.157
		c-0.116,0.656-0.834,0.82-1.531,1.142c-0.67,0.301-0.95,0.608-1.06,1.21c0.342-0.533,0.923-0.745,1.395-0.745
		c0.902,0,1.586,0.663,1.586,1.6c0,0.916-0.697,1.593-1.661,1.593C33.062,7.928,32.31,7.231,32.31,6.171z M35.345,6.335
		c0-0.731-0.52-1.265-1.278-1.265c-0.663,0-1.333,0.451-1.388,1.176c0,0.786,0.574,1.34,1.354,1.34
		C34.805,7.586,35.345,7.06,35.345,6.335z"/>
	<path fill="#1d1d1d" d="M40.166,6.137c0,1.012-0.793,1.784-1.771,1.784c-0.663,0-1.189-0.342-1.47-0.868v2.16h-0.342V4.428h0.342
		v0.793c0.28-0.526,0.807-0.868,1.47-0.868C39.373,4.353,40.166,5.125,40.166,6.137z M39.824,6.137c0-0.813-0.636-1.456-1.449-1.456
		s-1.449,0.643-1.449,1.456s0.636,1.456,1.449,1.456S39.824,6.951,39.824,6.137z"/>
	<path fill="#1d1d1d" d="M43.955,4.428v3.418h-0.349V5.023l-2.174,2.823h-0.301V4.428h0.342v2.823l2.181-2.823H43.955z"/>
	<path fill="#1d1d1d" d="M47.3,7.846l-1.812-1.682v1.682h-0.342V4.428h0.342V5.98l1.729-1.552h0.479l-1.839,1.641l1.907,1.777H47.3z
		"/>
	<path fill="#1d1d1d" d="M51.943,4.428v3.418h-0.349V7.074c-0.287,0.513-0.813,0.848-1.47,0.848c-0.971,0-1.771-0.772-1.771-1.784
		s0.8-1.784,1.771-1.784c0.656,0,1.183,0.335,1.47,0.848V4.428H51.943z M51.594,6.137c0-0.813-0.629-1.456-1.442-1.456
		s-1.449,0.643-1.449,1.456s0.636,1.456,1.449,1.456S51.594,6.951,51.594,6.137z"/>
	<path fill="#1d1d1d" d="M25.404,14.229h-1.976l-0.266,0.836h-1.33l1.809-5.319h1.55L27,15.065h-1.33L25.404,14.229z M25.039,13.09
		l-0.623-1.953l-0.623,1.953H25.039z"/>
	<path fill="#1d1d1d" d="M30.761,13.979c0,0.63-0.448,1.086-1.292,1.086h-2.052v-3.799h1.9c0.843,0,1.292,0.456,1.292,1.086
		c0,0.327-0.122,0.593-0.357,0.768C30.579,13.295,30.761,13.591,30.761,13.979z M28.482,12.178v0.532h0.714
		c0.205,0,0.334-0.076,0.334-0.258c0-0.19-0.129-0.274-0.334-0.274H28.482z M29.652,13.842c0-0.182-0.137-0.266-0.334-0.266h-0.836
		v0.547h0.836C29.515,14.123,29.652,14.032,29.652,13.842z"/>
	<path fill="#1d1d1d" d="M34.409,12.36h-1.132v2.705h-1.14V12.36h-1.147v-1.094h3.419V12.36z"/>
	<path fill="#1d1d1d" d="M34.713,13.166c0-1.132,0.896-2.006,2.014-2.006s2.014,0.874,2.014,2.006c0,1.132-0.896,2.006-2.014,2.006
		S34.713,14.298,34.713,13.166z M37.601,13.166c0-0.54-0.38-0.896-0.874-0.896c-0.494,0-0.874,0.357-0.874,0.896
		s0.38,0.897,0.874,0.897C37.22,14.063,37.601,13.705,37.601,13.166z"/>
	<path fill="#1d1d1d" d="M43.414,15.065h-1.094v-1.96l-0.851,1.322h-0.137l-0.851-1.322v1.96h-1.094v-3.799h1.094l0.919,1.436
		l0.919-1.436h1.094V15.065z"/>
	<path fill="#1d1d1d" d="M46.18,14.154c0.312,0,0.578-0.122,0.729-0.289l0.912,0.524c-0.372,0.517-0.935,0.783-1.656,0.783
		c-1.3,0-2.105-0.874-2.105-2.006c0-1.132,0.821-2.006,2.021-2.006c1.11,0,1.93,0.858,1.93,2.006c0,0.16-0.015,0.312-0.045,0.456
		h-2.698C45.412,14.017,45.762,14.154,46.18,14.154z M46.879,12.771c-0.122-0.441-0.464-0.6-0.806-0.6
		c-0.433,0-0.722,0.212-0.828,0.6H46.879z"/>
	<path fill="#1d1d1d" d="M50.959,15.065l-0.707-1.003l-0.707,1.003h-1.307l1.36-1.93l-1.315-1.869h1.307l0.661,0.942l0.661-0.942
		h1.307l-1.315,1.869l1.36,1.93H50.959z"/>
</g>
</svg>
