<?xml version="1.0" encoding="utf-8"?>
<!-- Generator: Adobe Illustrator 15.0.0, SVG Export Plug-In . SVG Version: 6.00 Build 0)  -->
<!DOCTYPE svg PUBLIC "-//W3C//DTD SVG 1.1//EN" "http://www.w3.org/Graphics/SVG/1.1/DTD/svg11.dtd">
<svg version="1.1" id="Icon_Set" xmlns="http://www.w3.org/2000/svg" xmlns:xlink="http://www.w3.org/1999/xlink" x="0px" y="0px"
	 width="115.36px" height="95.517px" viewBox="0 0 115.36 95.517" enable-background="new 0 0 115.36 95.517" xml:space="preserve">
<g>
	<g>
		
			<rect x="93.352" y="8.514" transform="matrix(-0.9291 -0.3698 0.3698 -0.9291 175.6375 103.2182)" fill="none" stroke="#000000" stroke-width="3" stroke-miterlimit="10" width="8.721" height="52.52"/>
		<path fill="none" stroke="#000000" stroke-width="3" stroke-miterlimit="10" d="M80.972,72.645l2.877,1.145
			c1.442,0.574,3.078-0.13,3.653-1.573l4.55-11.432l-8.103-3.225l-4.551,11.432C78.824,70.434,79.528,72.07,80.972,72.645z"/>
		
			<line fill="none" stroke="#000000" stroke-width="3" stroke-linecap="round" stroke-miterlimit="10" x1="82.41" y1="73.217" x2="79.159" y2="81.383"/>
		<path fill="none" stroke="#000000" stroke-width="3" stroke-miterlimit="10" d="M112.088,2.845L109.211,1.7
			c-1.443-0.574-3.079,0.13-3.653,1.573l-2.185,5.49l8.103,3.225l2.185-5.49C114.235,5.056,113.53,3.42,112.088,2.845z"/>
	</g>
	<polyline fill="none" stroke="#000000" stroke-width="3" stroke-linecap="round" stroke-miterlimit="10" points="104.737,48.345 
		104.737,94.017 1.5,94.017 1.5,28.54 88.37,28.54 	"/>
	
		<line fill="none" stroke="#000000" stroke-width="3" stroke-linecap="round" stroke-miterlimit="10" x1="72.145" y1="81.383" x2="19.598" y2="81.383"/>
	
		<line fill="none" stroke="#000000" stroke-width="3" stroke-linecap="round" stroke-miterlimit="10" x1="72.145" y1="52.361" x2="43.887" y2="52.361"/>
	
		<line fill="none" stroke="#000000" stroke-width="3" stroke-linecap="round" stroke-miterlimit="10" x1="72.145" y1="41.546" x2="43.887" y2="41.546"/>
	
		<line fill="none" stroke="#000000" stroke-width="3" stroke-linecap="round" stroke-miterlimit="10" x1="72.145" y1="63.176" x2="43.887" y2="63.176"/>
</g>
<text transform="matrix(1 0 0 1 17.3994 63.1758)" stroke="#000000" font-family="'Gilroy-Regular'" font-size="32">₽</text>
</svg>
