<?xml version="1.0" encoding="utf-8"?>
<!-- Generator: Adobe Illustrator 15.0.0, SVG Export Plug-In . SVG Version: 6.00 Build 0)  -->
<!DOCTYPE svg PUBLIC "-//W3C//DTD SVG 1.1//EN" "http://www.w3.org/Graphics/SVG/1.1/DTD/svg11.dtd">
<svg version="1.1" id="Icon_Set" xmlns="http://www.w3.org/2000/svg" xmlns:xlink="http://www.w3.org/1999/xlink" x="0px" y="0px"
	 width="112.464px" height="130.747px" viewBox="0 0 112.464 130.747" enable-background="new 0 0 112.464 130.747"
	 xml:space="preserve">
<g>
	<path fill="none" stroke="#344154" stroke-width="3" stroke-miterlimit="10" d="M69.647,121.104c1.681,3.961,5.6,6.74,10.174,6.74
		c2.433,0,4.677-0.792,6.501-2.125c1.047,1.295,2.646,2.125,4.442,2.125c1.93,0,3.633-0.96,4.667-2.426
		c1.65,1.502,3.837,2.426,6.243,2.426c5.131,0,9.289-4.159,9.289-9.289c0-4.311-2.94-7.926-6.923-8.973
		c0.03-0.239,0.052-0.48,0.052-0.727c0-3.156-2.559-5.714-5.714-5.714c-0.508,0-0.997,0.072-1.466,0.196
		c0.001-0.029,0.006-0.057,0.006-0.087c0-3.096-2.509-5.604-5.604-5.604c-1.701,0-3.222,0.76-4.25,1.956
		c-1.214-1.925-3.354-3.208-5.798-3.208c-0.208,0-0.413,0.011-0.617,0.029"/>
	<path fill="none" stroke="#344154" stroke-width="3" stroke-miterlimit="10" d="M31.884,96.434
		c-0.226-0.022-0.454-0.038-0.687-0.038c-2.444,0-4.583,1.283-5.798,3.208c-1.027-1.196-2.549-1.956-4.249-1.956
		c-3.096,0-5.605,2.509-5.605,5.604c0,0.03,0.006,0.058,0.006,0.087c-0.468-0.124-0.958-0.196-1.465-0.196
		c-3.156,0-5.714,2.558-5.714,5.714c0,0.246,0.021,0.487,0.051,0.727c-3.981,1.047-6.923,4.662-6.923,8.973
		c0,5.13,4.159,9.289,9.289,9.289c2.407,0,4.593-0.924,6.243-2.426c1.034,1.466,2.737,2.426,4.668,2.426
		c1.795,0,3.395-0.83,4.442-2.125c1.824,1.333,4.067,2.125,6.501,2.125c4.6,0,8.535-2.813,10.199-6.811"/>
	<path fill="none" stroke="#344154" stroke-width="3" stroke-miterlimit="10" d="M42.162,78.411l-6.623,7.379
		c-3.641,4.058-4.696,9.819-2.704,14.894c2.348,5.98,6.203,14.48,11.957,23.508l-2.145-19.145c-0.482-4.306,2.008-8.438,6.087-9.897
		c0.054-0.02,0.106-0.038,0.161-0.057L42.162,78.411z"/>
	<path fill="none" stroke="#344154" stroke-width="3" stroke-miterlimit="10" d="M56.232,124.191c6.342-26.984,0-46.632,0-46.632
		S49.89,97.207,56.232,124.191z"/>
	<path fill="none" stroke="#344154" stroke-width="3" stroke-miterlimit="10" d="M53.482,96.396c0,0-2.862-0.152-4.587-1.303"/>
	<path fill="none" stroke="#344154" stroke-width="3" stroke-miterlimit="10" d="M70.371,78.411l6.623,7.379
		c3.642,4.058,4.696,9.819,2.704,14.894c-2.348,5.98-6.203,14.48-11.957,23.508l2.145-19.145c0.482-4.306-2.007-8.438-6.087-9.897
		c-0.053-0.02-0.106-0.038-0.161-0.057L70.371,78.411z"/>
	<path fill="none" stroke="#344154" stroke-width="3" stroke-miterlimit="10" d="M59.051,96.396c0,0,2.862-0.152,4.587-1.303"/>
	<path fill="none" stroke="#344154" stroke-width="3" stroke-miterlimit="10" d="M42.162,78.411c0,0-14.78-45.246,14.07-76.211
		c9.661,10.37,14.43,22.342,16.499,33.68c0,0,3.473,15.96,0,31.827c-1.647,7.528-2.429,10.704-2.429,10.704"/>
	<path fill="none" stroke="#344154" stroke-width="3" stroke-miterlimit="10" d="M68.525,20.444c0,0-4.459,1.931-12.293,1.931
		c-7.835,0-12.293-1.931-12.293-1.931"/>
	<circle fill="none" stroke="#344154" stroke-width="3" stroke-miterlimit="10" cx="56.232" cy="47.03" r="8.643"/>
</g>
</svg>
