<?xml version="1.0" encoding="utf-8"?>
<!-- Generator: Adobe Illustrator 15.0.0, SVG Export Plug-In . SVG Version: 6.00 Build 0)  -->
<!DOCTYPE svg PUBLIC "-//W3C//DTD SVG 1.1//EN" "http://www.w3.org/Graphics/SVG/1.1/DTD/svg11.dtd">
<svg version="1.1" id="Icon_Set" xmlns="http://www.w3.org/2000/svg" xmlns:xlink="http://www.w3.org/1999/xlink" x="0px" y="0px"
	 width="159.437px" height="94.151px" viewBox="0 0 159.437 94.151" enable-background="new 0 0 159.437 94.151"
	 xml:space="preserve">
<g>
	
		<polyline id="XMLID_2309_" fill="none" stroke="#1d1d1d" stroke-width="3" stroke-linecap="round" stroke-linejoin="round" stroke-miterlimit="10" points="
		86.031,27.87 50.982,1.5 1.5,38.73 	"/>
	
		<line id="XMLID_2243_" fill="none" stroke="#1d1d1d" stroke-width="3" stroke-linecap="round" stroke-linejoin="round" stroke-miterlimit="10" x1="10.784" y1="31.745" x2="10.784" y2="92.651"/>
	
		<rect id="XMLID_2230_" x="37.149" y="44.787" fill="none" stroke="#1d1d1d" stroke-width="3" stroke-miterlimit="10" width="27.665" height="27.666"/>
	
		<line fill="none" stroke="#1d1d1d" stroke-width="3" stroke-linecap="round" stroke-linejoin="round" stroke-miterlimit="10" x1="10.784" y1="92.651" x2="64.814" y2="92.651"/>
	<path fill="none" stroke="#1d1d1d" stroke-width="3" stroke-linecap="round" stroke-linejoin="round" stroke-miterlimit="10" d="
		M69.888,28.21c-8.927-6.717-18.905-14.224-18.905-14.224L32.076,28.21"/>
	
		<circle fill="none" stroke="#1d1d1d" stroke-width="3" stroke-linecap="round" stroke-linejoin="round" stroke-miterlimit="10" cx="95.381" cy="82.351" r="10.3"/>
	<path fill="none" stroke="#1d1d1d" stroke-width="3" stroke-linecap="round" stroke-linejoin="round" stroke-miterlimit="10" d="
		M98.875,82.351c0,1.902-1.542,3.444-3.445,3.444c-1.902,0-3.444-1.542-3.444-3.444"/>
	<path fill="none" stroke="#1d1d1d" stroke-width="3" stroke-linecap="round" stroke-linejoin="round" stroke-miterlimit="10" d="
		M85.081,82.941L85.081,82.941c-3.793,0-6.916-3.014-7.007-6.806c-0.132-5.474,0.861-13.045,6.348-18.006
		c1.589-1.436,3.446-2.539,5.425-3.356c3.851-1.59,14.841-6.825,24.447-18.06c6.324-7.396,15.361-12.049,25.09-12.3
		c0.373-0.01,0.75-0.014,1.133-0.014v22.48"/>
	<path fill="none" stroke="#1d1d1d" stroke-width="3" stroke-linecap="round" stroke-linejoin="round" stroke-miterlimit="10" d="
		M85.081,82.941L85.081,82.941c-3.793,0-6.916-3.014-7.007-6.806c-0.132-5.474,0.861-13.045,6.348-18.006
		c1.589-1.436,3.446-2.539,5.425-3.356c3.851-1.59,14.841-6.825,24.447-18.06c6.324-7.396,15.361-12.049,25.09-12.3
		c0.373-0.01,0.75-0.014,1.133-0.014v57.951"/>
	<path fill="none" stroke="#1d1d1d" stroke-width="3" stroke-linecap="round" stroke-linejoin="round" stroke-miterlimit="10" d="
		M140.517,24.4v-9.44c0-1.55,1.257-2.807,2.807-2.807h14.613"/>
	
		<line fill="none" stroke="#1d1d1d" stroke-width="3" stroke-linecap="round" stroke-linejoin="round" stroke-miterlimit="10" x1="157.937" y1="82.351" x2="105.681" y2="82.351"/>
	
		<polyline fill="none" stroke="#1d1d1d" stroke-width="3" stroke-linecap="round" stroke-linejoin="round" stroke-miterlimit="10" points="
		124.33,37.498 132.526,37.498 132.526,55.036 107.854,55.036 	"/>
	
		<line fill="none" stroke="#1d1d1d" stroke-width="3" stroke-linecap="round" stroke-linejoin="round" stroke-miterlimit="10" x1="132.526" y1="55.036" x2="132.526" y2="73.296"/>
</g>
</svg>
