<?xml version="1.0" encoding="utf-8"?>
<!-- Generator: Adobe Illustrator 15.0.0, SVG Export Plug-In . SVG Version: 6.00 Build 0)  -->
<!DOCTYPE svg PUBLIC "-//W3C//DTD SVG 1.1//EN" "http://www.w3.org/Graphics/SVG/1.1/DTD/svg11.dtd">
<svg version="1.1" id="Icon_Set" xmlns="http://www.w3.org/2000/svg" xmlns:xlink="http://www.w3.org/1999/xlink" x="0px" y="0px"
	 width="115.787px" height="105.874px" viewBox="0 0 115.787 105.874" enable-background="new 0 0 115.787 105.874"
	 xml:space="preserve">
<g>
	<g>
		<path id="XMLID_124_" fill="none" stroke="#1d1d1d" stroke-width="3" stroke-miterlimit="10" d="M11.319,48.076
			C11.319,22.353,32.172,1.5,57.895,1.5s46.575,20.853,46.575,46.576"/>
		<path id="XMLID_123_" fill="none" stroke="#1d1d1d" stroke-width="3" stroke-miterlimit="10" d="M102.454,75.006h-5.001V47.792
			h5.001c6.535,0,11.833,5.298,11.833,11.833v3.547C114.287,69.708,108.989,75.006,102.454,75.006z"/>
		<path id="XMLID_122_" fill="none" stroke="#1d1d1d" stroke-width="3" stroke-miterlimit="10" d="M93.87,80.372h-1.074
			c-1.971,0-3.583-1.612-3.583-3.583V46.01c0-1.971,1.612-3.583,3.583-3.583h1.074c1.971,0,3.583,1.613,3.583,3.583v30.779
			C97.453,78.759,95.84,80.372,93.87,80.372z"/>
		<path id="XMLID_121_" fill="none" stroke="#1d1d1d" stroke-width="3" stroke-miterlimit="10" d="M21.917,80.372h1.074
			c1.971,0,3.583-1.612,3.583-3.583V46.01c0-1.971-1.613-3.583-3.583-3.583h-1.074c-1.971,0-3.583,1.613-3.583,3.583v30.779
			C18.334,78.759,19.946,80.372,21.917,80.372z"/>
		<path id="XMLID_120_" fill="none" stroke="#1d1d1d" stroke-width="3" stroke-miterlimit="10" d="M13.333,75.006h5.001V47.792
			h-5.001C6.798,47.792,1.5,53.09,1.5,59.625v3.547C1.5,69.708,6.798,75.006,13.333,75.006z"/>
		<path id="XMLID_119_" fill="none" stroke="#1d1d1d" stroke-width="3" stroke-miterlimit="10" d="M68.084,104.374h4.879
			c13.525,0,24.489-10.964,24.489-24.489v-4.878"/>
		<path id="XMLID_118_" fill="none" stroke="#1d1d1d" stroke-width="3" stroke-miterlimit="10" d="M68.902,104.374h-6.351
			c-2.073,0-3.754-1.681-3.754-3.754v-1.125c0-2.073,1.681-3.754,3.754-3.754h6.351c2.073,0,3.754,1.681,3.754,3.754v1.125
			C72.656,102.693,70.975,104.374,68.902,104.374z"/>
	</g>
	<g>
		<line fill="none" stroke="#1d1d1d" stroke-width="3" stroke-miterlimit="10" x1="46.143" y1="61.399" x2="49.143" y2="61.399"/>
		<line fill="none" stroke="#1d1d1d" stroke-width="3" stroke-miterlimit="10" x1="56.393" y1="61.399" x2="59.393" y2="61.399"/>
		<line fill="none" stroke="#1d1d1d" stroke-width="3" stroke-miterlimit="10" x1="66.643" y1="61.399" x2="69.643" y2="61.399"/>
	</g>
</g>
</svg>
