<?xml version="1.0" encoding="utf-8"?>
<!-- Generator: Adobe Illustrator 15.0.0, SVG Export Plug-In . SVG Version: 6.00 Build 0)  -->
<!DOCTYPE svg PUBLIC "-//W3C//DTD SVG 1.1//EN" "http://www.w3.org/Graphics/SVG/1.1/DTD/svg11.dtd">
<svg version="1.1" id="Icon_Set" xmlns="http://www.w3.org/2000/svg" xmlns:xlink="http://www.w3.org/1999/xlink" x="0px" y="0px"
	 width="129.479px" height="94.285px" viewBox="0 0 129.479 94.285" enable-background="new 0 0 129.479 94.285"
	 xml:space="preserve">
<g>
	<g>
		<path fill="none" stroke="#1d1d1d" stroke-width="3" stroke-linecap="round" stroke-linejoin="round" stroke-miterlimit="10" d="
			M55.86,75.705h15.854c0,0-0.375,4.049,0.425,8.027c0.612,3.049,2.854,5.756,6.171,7.456l0,0c0.928,0.475,0.494,1.597-0.617,1.597
			H55.86H34.027c-1.111,0-1.545-1.122-0.617-1.597l0,0c3.317-1.7,5.559-4.407,6.171-7.456c0.8-3.979,0.425-8.027,0.425-8.027H55.86z
			"/>
		
			<circle fill="none" stroke="#1d1d1d" stroke-width="3" stroke-linecap="round" stroke-linejoin="round" stroke-miterlimit="10" cx="55.86" cy="69.179" r="1.062"/>
		<path fill="none" stroke="#1d1d1d" stroke-width="3" stroke-linecap="round" stroke-linejoin="round" stroke-miterlimit="10" d="
			M92.464,75.705H40.007H6.862c-2.962,0-5.362-2.4-5.362-5.362v-7.688h21.027"/>
		<path fill="none" stroke="#1d1d1d" stroke-width="3" stroke-linecap="round" stroke-linejoin="round" stroke-miterlimit="10" d="
			M92.388,62.655H1.5V48.14V7.314C1.5,4.103,4.104,1.5,7.314,1.5h97.092c3.211,0,5.814,2.603,5.814,5.814v26.995"/>
	</g>
	
		<line id="XMLID_68_" fill="none" stroke="#1d1d1d" stroke-width="3" stroke-miterlimit="10" x1="124.414" y1="81.111" x2="96.026" y2="81.111"/>
	<path id="XMLID_67_" fill="none" stroke="#1d1d1d" stroke-width="3" stroke-miterlimit="10" d="M125.253,92.785H95.188
		c-1.505,0-2.725-1.221-2.725-2.725V62.655v-25.62c0-1.505,1.22-2.725,2.725-2.725h15.033h15.033c1.504,0,2.725,1.22,2.725,2.725
		v53.024C127.979,91.564,126.758,92.785,125.253,92.785z"/>
	<circle id="XMLID_66_" fill="none" stroke="#1d1d1d" stroke-width="3" stroke-miterlimit="10" cx="110.22" cy="87" r="0.947"/>
	
		<polyline id="XMLID_65_" fill="none" stroke="#1d1d1d" stroke-width="3" stroke-linecap="round" stroke-linejoin="round" stroke-miterlimit="10" points="
		106.701,40.223 110.221,40.223 113.74,40.223 	"/>
</g>
</svg>
